<svg version="1.1" id="Capa_1" xmlns="http://www.w3.org/2000/svg" x="0" y="0" viewBox="0 0 841.89 595.28" style="enable-background:new 0 0 841.89 595.28" xml:space="preserve"><style>.st0{fill:#fff}</style><path class="st0" d="m144.46 241.68-8.36 12c-2.47 3.55 3.65 9.37 9.62 3.09l7.17-.29c.44-.02.86.14 1.22.39 4.03 2.82 10.3 2.97 7.51-3.2l-8.36-12c-2.15-3.05-6.67-3.05-8.8.01z"/><path class="st0" d="M150.64 235.39c6.57.42 10.89 3.83 12.75 6.2 4.83 6.18 6.03 12.66 6.39 15.78 7.45-15.3 12.21-36.9 12.21-55.08 0-32.06-14.81-41.33-33.08-41.33s-33.08 9.27-33.08 41.33c0 18.18 4.76 39.78 12.22 55.08 3.27-15.89 14.17-22.52 22.59-21.98zm169.93-29.62v-23.15c0-3.24-.35-5.57-1.05-6.97-.7-1.4-2.15-2.1-4.34-2.1v-4.08l26.96-11.31 2.1 4.21c-1.93 0-3.77 1.14-5.52 3.42-1.58 2.19-2.37 5.52-2.37 10v29.98h6.58v3.16l-6.58 3.29v27.88c0 5.35 1.8 8.37 5.39 9.07v2.89l-13.28 7.5c-1.93-.79-3.73-2.08-5.39-3.88-1.67-1.8-2.5-3.49-2.5-5.06v-38.4h-11.84v27.09c0 3.24.35 5.57 1.05 6.97.7 1.4 2.15 2.1 4.34 2.1v4.08l-26.96 11.31-2.1-4.21c1.93 0 3.77-1.14 5.52-3.42 1.58-2.19 2.37-5.52 2.37-9.99v-68.39c0-5.35-1.8-8.37-5.39-9.07v-2.89l13.28-7.5c1.93.79 3.72 2.08 5.39 3.88 1.66 1.8 2.5 3.49 2.5 5.06v42.08l6.58-3.55h5.26zm61.15-21.17c.44 0 1.53.68 3.29 2.04 1.75 1.36 3.51 3.25 5.26 5.66s2.63 4.76 2.63 7.04v22.09c0 1.58-2.32 3.51-6.97 5.79-4.65 2.28-9.14 4.14-13.48 5.59-4.34 1.45-6.69 2.17-7.04 2.17 0 6.75 2.94 10.92 8.81 12.49 2.89.7 6.36 1.05 10.39 1.05v3.81c-14.38 4.82-22.05 7.23-23.01 7.23-2.63 0-5.31-1.86-8.02-5.59-2.72-3.73-4.08-8.09-4.08-13.09v-44.19c0-.61 5-2.78 14.99-6.51 9.99-3.72 15.73-5.58 17.23-5.58zm-6.32 14.66c-1.14-1.71-2.59-2.56-4.34-2.56s-3.68.66-5.79 1.97v30.38c7.89-2.19 11.84-6.93 11.84-14.2v-9.34c0-2.46-.57-4.54-1.71-6.25zm23.54-6.77 14.47-7.89c.61.18 1.33.42 2.17.72.83.31 1.97 1.16 3.42 2.56 1.45 1.4 2.17 2.98 2.17 4.73.44-.18 2.52-1.56 6.25-4.14 3.73-2.59 6.12-3.88 7.17-3.88 2.81 0 5.44 1.84 7.89 5.52 2.45 3.68 3.68 7.06 3.68 10.13v6.44l-13.55 7.63-2.24-1.84c0-7.36-.7-11.57-2.1-12.63-1.58-1.14-3.95-1.71-7.1-1.71v41.95c0 5.35 1.79 8.37 5.39 9.07v2.89l-13.28 7.5c-1.93-.79-3.73-2.08-5.39-3.88-1.67-1.8-2.5-3.49-2.5-5.06v-43.66c0-3.86-.68-6.75-2.04-8.68-1.36-1.93-2.83-2.89-4.41-2.89v-2.88zm56.42 58.12v-44.58c0-2.89-.61-5.39-1.84-7.5-1.23-2.1-2.76-3.16-4.6-3.16v-2.89c.61-.09 5.39-2.76 14.34-8.02.61.18 1.36.42 2.24.72.88.31 2.04 1.16 3.48 2.56 1.45 1.4 2.17 3.02 2.17 4.87.53-.26 2.02-1.1 4.47-2.5 6.49-3.68 10.5-5.52 12.03-5.52 1.53 0 3.24.79 5.13 2.37 1.89 1.58 3.31 3.46 4.27 5.66.17-.09 1.97-1.01 5.39-2.76 6.84-3.51 10.96-5.26 12.36-5.26 2.81 0 5.44 1.84 7.89 5.52 2.45 3.68 3.68 7.06 3.68 10.13v39.85c0 4.82 2.15 7.67 6.44 8.55v2.89l-14.34 8.02c-1.93-.79-3.73-2.08-5.39-3.88-1.67-1.8-2.5-3.49-2.5-5.06v-38.8c0-5.7-.75-9.49-2.24-11.38-1.49-1.88-3.42-2.83-5.79-2.83l-3.81.79v41.69c0 4.82 2.15 7.67 6.44 8.55v2.89l-14.34 8.02c-1.93-.79-3.73-2.08-5.39-3.88-1.67-1.8-2.5-3.49-2.5-5.06v-38.14c0-10.08-2.41-15.12-7.23-15.12l-4.6.79v41.95c0 5.35 1.79 8.37 5.39 9.07v2.89l-13.28 7.5c-1.93-.79-3.73-2.08-5.39-3.88-1.65-1.79-2.48-3.48-2.48-5.06zm124.94-48.66v37.22c0 3.24.53 5.5 1.58 6.77 1.05 1.27 2.67 2.17 4.87 2.7v2.89l-14.34 8.02c-1.93-.79-3.73-2.08-5.39-3.88-1.67-1.8-2.5-3.44-2.5-4.93l-16.44 8.81c-.26-.17-.66-.42-1.18-.72-.53-.31-1.43-.96-2.7-1.97-1.27-1.01-2.39-2.08-3.35-3.22-2.63-2.89-3.95-6.18-3.95-9.86v-21.57c0-1.4 2.28-3.2 6.84-5.39 4.56-2.19 9.12-3.99 13.68-5.39l6.97-2.24c0-5-1.31-8.48-3.95-10.46-2.63-1.97-7.71-2.96-15.26-2.96v-3.94c13.59-4.82 21.22-7.23 22.88-7.23 2.89 0 5.66 1.89 8.29 5.65 2.63 3.77 3.95 7.67 3.95 11.7zm-25.58 42.68c1.36 1.45 2.87 2.17 4.54 2.17 1.66 0 3.42-.66 5.26-1.97v-29.72c-2.19.79-3.84 1.45-4.93 1.97-1.1.53-2.26 1.36-3.48 2.5-2.28 2.1-3.42 5.74-3.42 10.92v8.55c-.01 2.27.67 4.13 2.03 5.58zm38.73 5.98v-44.58c0-2.89-.61-5.39-1.84-7.5-1.23-2.1-2.76-3.16-4.6-3.16v-2.89c.61-.09 5.39-2.76 14.34-8.02.61.18 1.36.42 2.24.72.88.31 2.04 1.16 3.48 2.56 1.45 1.4 2.17 3.02 2.17 4.87.53-.26 2.02-1.1 4.47-2.5 6.49-3.68 10.34-5.52 11.57-5.52 2.8 0 5.44 1.84 7.89 5.52 2.45 3.68 3.68 7.06 3.68 10.13v39.85c0 4.82 2.15 7.67 6.44 8.55v2.89l-14.34 8.02c-1.93-.79-3.73-2.08-5.39-3.88-1.67-1.8-2.5-3.49-2.5-5.06v-38.14c0-4.91-.55-8.66-1.64-11.24-1.1-2.59-3.05-3.88-5.85-3.88l-4.34.79v41.95c0 5.35 1.79 8.37 5.39 9.07v2.89l-13.28 7.5c-1.93-.79-3.73-2.08-5.39-3.88-1.67-1.79-2.5-3.48-2.5-5.06zm81.27-92.32c2.37 0 6.09 5.74 11.18 17.23 5.08 11.49 7.63 19.42 7.63 23.8v40.11c0 2.02.55 3.99 1.64 5.92 1.1 1.93 2.65 3.02 4.67 3.29v2.89c-.61.09-5.39 2.76-14.34 8.02-2.02-.88-3.84-2.17-5.46-3.88s-2.43-3.31-2.43-4.8c-9.38 5.79-14.86 8.68-16.44 8.68-.61 0-1.78-.68-3.48-2.04-1.71-1.36-3.42-3.33-5.13-5.92-1.71-2.58-2.56-5.24-2.56-7.96v-46.95c0-.88 7.41-3.9 22.23-9.07-3.16-6.92-5.7-11.79-7.63-14.6-1.93-2.8-3.81-4.21-5.66-4.21h-4.34v-3.95c9.73-4.36 16.43-6.56 20.12-6.56zm-2.24 89.17c1.66 0 3.37-.7 5.13-2.1v-45.77c0-.53-.37-1.64-1.12-3.35-.75-1.71-1.29-2.56-1.64-2.56-2.54 0-5.13.79-7.76 2.37l-1.31.79v40.9c0 6.47 2.23 9.72 6.7 9.72zm77.46-45.51v37.22c0 3.24.53 5.5 1.58 6.77 1.05 1.27 2.67 2.17 4.87 2.7v2.89l-14.34 8.02c-1.93-.79-3.73-2.08-5.39-3.88-1.67-1.8-2.5-3.44-2.5-4.93l-16.44 8.81c-.26-.17-.66-.42-1.18-.72-.53-.31-1.43-.96-2.7-1.97-1.27-1.01-2.39-2.08-3.35-3.22-2.63-2.89-3.95-6.18-3.95-9.86v-21.57c0-1.4 2.28-3.2 6.84-5.39 4.56-2.19 9.12-3.99 13.68-5.39l6.97-2.24c0-5-1.31-8.48-3.95-10.46-2.63-1.97-7.71-2.96-15.26-2.96v-3.94c13.59-4.82 21.22-7.23 22.88-7.23 2.89 0 5.66 1.89 8.29 5.65 2.64 3.77 3.95 7.67 3.95 11.7zm-25.58 42.68c1.36 1.45 2.87 2.17 4.54 2.17 1.66 0 3.42-.66 5.26-1.97v-29.72c-2.19.79-3.84 1.45-4.93 1.97-1.1.53-2.26 1.36-3.48 2.5-2.28 2.1-3.42 5.74-3.42 10.92v8.55c-.01 2.27.67 4.13 2.03 5.58zm63.45-86.34c2.37 0 6.09 5.74 11.18 17.23 5.08 11.49 7.63 19.42 7.63 23.8v40.11c0 2.02.55 3.99 1.64 5.92 1.1 1.93 2.65 3.02 4.67 3.29v2.89c-.61.09-5.39 2.76-14.34 8.02-2.02-.88-3.84-2.17-5.46-3.88s-2.43-3.31-2.43-4.8c-9.38 5.79-14.86 8.68-16.44 8.68-.61 0-1.78-.68-3.48-2.04-1.71-1.36-3.42-3.33-5.13-5.92-1.71-2.58-2.56-5.24-2.56-7.96v-46.95c0-.88 7.41-3.9 22.23-9.07-3.16-6.92-5.7-11.79-7.63-14.6-1.93-2.8-3.81-4.21-5.66-4.21h-4.34v-3.95c9.73-4.36 16.44-6.56 20.12-6.56zm-2.23 89.17c1.66 0 3.37-.7 5.13-2.1v-45.77c0-.53-.37-1.64-1.12-3.35-.75-1.71-1.29-2.56-1.64-2.56-2.54 0-5.13.79-7.76 2.37l-1.31.79v40.9c-.01 6.47 2.23 9.72 6.7 9.72zm-522.91 147.5-5.54-33.27a81.98 81.98 0 0 0-1.13-5.57l-3.54-15.06c-1.32-5.57-4.4-12.96-7.58-19.73-5.34-11.37-13.71-21.04-24.13-28.06l-20.74-13.96a53.68 53.68 0 0 1-6.54-5.2l-16.68-15.55c-5.2 11.59-16.61 21.7-27.88 21.7-10.15 0-22.75-9.68-29.31-20.7l-4.95 8.16a43.923 43.923 0 0 1-9.4 10.93L74.8 304.03l-13.32 12.89a71.828 71.828 0 0 0-15.61 22.34 54.077 54.077 0 0 0-4.31 15.88c-3.49 16-6.59 33.64-8.85 52.79a553.703 553.703 0 0 0-3.76 60.68h242.73l-9.01-73.65zm-115.79-28.29-.19 1.11a4.383 4.383 0 0 1-2.31 3.16l-6.56 3.37c-.12.06-.24.13-.35.21l-1.72 1.23c-.98.7-2.06 1.25-3.21 1.62l-5.57 1.84c-.05-.55-.19-2.59 1.19-4.49a6.559 6.559 0 0 1 2.81-2.21l15.49-6.19c.23-.08.46.11.42.35zm-19.49.65c.08-.67.4-1.3.91-1.75l8.14-7.32c.16-.14.41-.03.41.18v2.91a3.6 3.6 0 0 1-1.34 2.81l-8.56 6.93.44-3.76zm22.93 15.41c0 1.31-1.03 2.39-2.34 2.44l-19.47.79c-.89.04-1.72.45-2.29 1.14l-3.45 4.2c-.87 1.07-.87 2.19-.45 2.51.17.13.45.15.76.07.58-.14 1.04-.57 1.32-1.1l2.11-3.94c.25-.47.73-.76 1.26-.76h5.18l.24 13.35c-.21 1.86 1.02 3.18 2.08 3.16.73-.01 2.79.21 3.14-8 0-.09.78-8.89.78-8.89l4.98.13c1.1.03 3.91-1.43 3.62 15.69a39.878 39.878 0 0 1-2.95 13.23c-3.35 6.71-8.02 11.7-13.77 15.28l-33.2 32.67v-40c1.31-1.07 3.04-2.48 5.09-4.15 2.7-2.19 3.35-2.71 3.96-3.77.91-1.58.96-3.01.94-6.6-.02-3.26-.09-6.35-.19-9.25l1.11-43.5c.01-.47.39-.84.86-.84h1.71c2.45 0 4.43 1.98 4.43 4.43v26.51l4.69-3.64c1.89-1.46 4.04-2.54 6.34-3.17l.29-.08c1.13-.31 2.29-.48 3.46-.5l19.75-.35v2.94zm50.12-21.39c.29.95.7 1.86 1.01 2.81 1.2 3.63.9 7.73-.82 11.15l-2.01-23.77c1.17 3.12.84 6.62 1.82 9.81zm-.76 22.22c.77 3.47 1.48 6.97 1.15 10.49l-1.15-10.49-.45-2.03a150.52 150.52 0 0 1-3.48-33.92l3.93 35.95zm-10.37 6.72c2.44-4.49 4.71-4.63 6.38-3.72s2.13 2.53-.31 7.02-8.61 8.52-8.61 8.52.1-7.33 2.54-11.82zm-3.58 2.56s-3.54-5.81-3.57-10.41c-.03-4.6 1.14-5.69 3.05-5.7 1.91-.01 3.84 1.06 3.87 5.66.02 4.6-3.35 10.45-3.35 10.45zm4.6 14.41c2.44-3.6 4.6-3.36 6.18-2.29 1.58 1.07 1.98 2.58-.46 6.17s-8.43 6.19-8.43 6.19.27-6.48 2.71-10.07zm.56 13.95c2.68-3.95 5.06-3.69 6.79-2.52 1.74 1.18 2.17 2.83-.51 6.78-2.68 3.95-9.26 6.8-9.26 6.8s.3-7.11 2.98-11.06zm2.64-53.96 1.39 9.51c.15.33.29.65.41.98.87 2.27 1.14 4.77.78 7.17l-1.19-8.16c-.39-.88-.82-1.74-1.14-2.64-.77-2.18-.85-4.61-.25-6.86zm-1.99-14.37.71 23.87c.66 2.43 1.11 4.88.21 7.17l-.21-7.17c-.32-1.17-.68-2.33-.97-3.48-1.68-6.64-.71-13.62.26-20.39zm-8.18 5.25 4.77-30.97c-.06-1.31-.15-2.63-.28-3.94-.16-1.63-.37-3.28-.13-4.91.24-1.62 1.01-3.25 2.41-4.11l-2 12.96c.54 11.12-1.11 22.28-2.76 33.32-.27 1.79-.54 3.59-1.08 5.32-.52 1.66-1.29 3.23-1.94 4.85-.86 2.13-1.5 4.35-1.94 6.6l-.53 3.42c.11-1.15.3-2.29.53-3.42l2.3-14.91c-.46 2.04-1.15 4.02-2.15 5.9-.33.61-.68 1.22-1.04 1.82l-1.53 11.51c-.5-2.44-.99-4.98-.38-7.39.37-1.47 1.13-2.8 1.91-4.12l3.32-25.02c.52 4.31.9 8.78.52 13.09zm-7.98-18.46-.45 4.67c.03.19.05.39.08.58.24 1.77.4 3.74-.64 5.19l.56-5.77c-.21-1.6-.33-3.28.45-4.67zm.92-18.94c2.06 9.83 4.13 19.79 3.66 29.82-.3 6.49-1.67 12.9-3.71 19.07-.68 2.06-1.44 4.16-1.97 6.28l-.3 8.23c-.71-2.71-.39-5.48.3-8.23l2.02-55.17zm-5.53 50.81.44-10.5c-.02-.07-.03-.14-.05-.21-.43-1.62-.88-3.56.26-4.79l-.21 5c.92 3.48 1.34 7.37-.44 10.5zm2.36 16.35c1.55-1.12 3.81-1.28 6.81 2.86 3.01 4.14 4.05 11.39 4.05 11.39s-6.64-3.19-9.65-7.33c-3-4.13-2.76-5.8-1.21-6.92zm1.57 18.35c1.43-1.27 3.54-1.78 6.43 1.47s3.99 9.64 3.99 9.64-6.28-1.79-9.16-5.04c-2.89-3.26-2.69-4.81-1.26-6.07zm.62 13.76c1.57-1.39 3.89-1.96 7.06 1.61 3.17 3.57 4.39 10.59 4.39 10.59s-6.9-1.97-10.07-5.54c-3.16-3.57-2.95-5.26-1.38-6.66zm1.96 34.71c-3.39-3.81-3.15-5.62-1.48-7.11 1.67-1.49 4.16-2.09 7.54 1.72 3.39 3.81 4.68 11.31 4.68 11.31s-7.35-2.11-10.74-5.92zm0-13.22c-3.39-3.81-3.15-5.62-1.48-7.11s4.16-2.09 7.54 1.72 4.68 11.31 4.68 11.31-7.35-2.1-10.74-5.92zm14.54-5.79c2.86-4.22 5.4-3.94 7.26-2.69s2.32 3.02-.54 7.24c-2.86 4.22-9.89 7.26-9.89 7.26s.3-7.59 3.17-11.81zm8.43 17.66c-2.86 4.22-9.89 7.26-9.89 7.26s.31-7.6 3.18-11.82c2.86-4.22 5.4-3.94 7.26-2.69s2.31 3.04-.55 7.25zm1.03-102.3.91-11.58c-.2-2.05-.49-4.11-.73-6.13-.72-5.92-.89-12.42 2.58-17.27l-1.84 23.41c.37 3.94.39 7.88-.92 11.57z"/><path class="st0" d="M150.32 126.67c-43.89 0-79.47 35.58-79.47 79.47 0 27.15 13.62 51.11 34.4 65.44l9.36-12.03c-17.21-11.53-28.54-31.15-28.54-53.41 0-35.49 28.77-64.25 64.25-64.25 35.49 0 64.25 28.77 64.25 64.25 0 22.54-11.62 42.36-29.19 53.83l10.34 11.37c20.58-14.36 34.06-38.2 34.06-65.2.01-43.89-35.57-79.47-79.46-79.47zm150.43 194.79c-2.19 0-4.08-1.66-5.66-5-1.58-3.33-2.37-7.41-2.37-12.23v-27.36c0-1.66 4.6-4.54 13.81-8.61 9.21-4.08 14.51-6.12 15.91-6.12 1.05 0 2.54 1.76 4.47 5.26.44.88 1.07 2.06 1.91 3.55.83 1.49 1.51 2.72 2.04 3.68 1.14 2.1 2.58 3.16 4.34 3.16v2.63c-1.4.61-3.29 1.54-5.65 2.76-5.52 3.07-8.51 4.6-8.94 4.6-1.31 0-2.96-2.59-4.93-7.76-1.97-5.17-3.57-7.76-4.8-7.76-1.58 0-2.37 1.31-2.37 3.94v29.33c0 3.51.79 5.26 2.37 5.26.35 0 3.07-1.14 8.15-3.42 5.08-2.28 8.15-3.42 9.21-3.42 2.1 0 3.97 1.69 5.59 5.06 1.62 3.38 2.43 7.69 2.43 12.95V350c0 1.67-5.02 4.54-15.06 8.61-10.04 4.08-15.8 6.12-17.29 6.12-.61 0-1.31-.75-2.1-2.24-.79-1.49-1.82-3.62-3.09-6.38-1.27-2.76-2.41-5.06-3.42-6.9-1.01-1.84-2.39-2.76-4.14-2.76v-2.63c1.4-.61 3.24-1.53 5.52-2.76 5.61-3.07 8.63-4.6 9.07-4.6 1.31 0 3.18 3.02 5.59 9.07 2.41 6.05 4.23 9.07 5.46 9.07.88 0 1.71-.35 2.5-1.05.79-.7 1.18-1.66 1.18-2.89v-29.59c0-3.95-1.1-5.92-3.29-5.92-.7 0-3.46 1.05-8.29 3.16-4.82 2.1-7.53 3.15-8.15 3.15zm88.64-15.65v37.22c0 3.24.53 5.5 1.58 6.77 1.05 1.27 2.67 2.17 4.87 2.7v2.89l-14.34 8.02c-1.93-.79-3.73-2.08-5.39-3.88-1.67-1.8-2.5-3.44-2.5-4.93l-16.44 8.81c-.26-.17-.66-.41-1.18-.72-.53-.31-1.43-.96-2.7-1.97-1.27-1.01-2.39-2.08-3.35-3.22-2.63-2.89-3.95-6.18-3.95-9.86v-21.57c0-1.4 2.28-3.2 6.84-5.39 4.56-2.19 9.12-3.99 13.68-5.39l6.97-2.24c0-5-1.32-8.48-3.95-10.45-2.63-1.97-7.72-2.96-15.26-2.96v-3.94c13.59-4.82 21.22-7.23 22.88-7.23 2.89 0 5.65 1.89 8.28 5.65 2.65 3.76 3.96 7.66 3.96 11.69zm-25.58 42.68c1.36 1.45 2.87 2.17 4.54 2.17 1.66 0 3.42-.66 5.26-1.97v-29.72c-2.19.79-3.84 1.45-4.93 1.97-1.1.53-2.26 1.36-3.48 2.5-2.28 2.1-3.42 5.74-3.42 10.91v8.55c-.01 2.28.67 4.14 2.03 5.59zm38.73 5.98v-44.58c0-2.89-.61-5.39-1.84-7.49-1.23-2.11-2.76-3.16-4.6-3.16v-2.89c.61-.09 5.39-2.76 14.34-8.02.61.18 1.36.42 2.24.72.88.31 2.04 1.16 3.48 2.56 1.45 1.4 2.17 3.02 2.17 4.87.53-.26 2.02-1.1 4.47-2.5 6.49-3.68 10.34-5.52 11.57-5.52 2.8 0 5.44 1.84 7.89 5.52 2.45 3.68 3.68 7.06 3.68 10.13v39.85c0 4.82 2.15 7.67 6.44 8.55v2.89l-14.33 8.02c-1.93-.79-3.73-2.08-5.39-3.88-1.67-1.8-2.5-3.49-2.5-5.06v-38.14c0-4.91-.55-8.66-1.64-11.24-1.1-2.59-3.05-3.88-5.85-3.88l-4.34.79v41.95c0 5.35 1.79 8.37 5.39 9.07v2.89l-13.28 7.5c-1.93-.79-3.73-2.08-5.39-3.88-1.68-1.8-2.51-3.49-2.51-5.07zm81.53-7.89v-60.1c0-3.24-.35-5.57-1.05-6.97-.7-1.4-2.15-2.11-4.34-2.11v-4.08l26.96-11.31 2.11 4.21c-1.93 0-3.77 1.14-5.52 3.42-1.58 2.19-2.37 5.52-2.37 10v61.81c0 2.37.39 4.06 1.18 5.06.79 1.01 2.15 1.51 4.08 1.51v3.68c-17.8 7.8-26.74 11.7-26.83 11.7l-2.1-4.21c.7 0 1.55-.31 2.56-.92 1.01-.61 1.86-1.31 2.56-2.1 1.84-2.09 2.76-5.29 2.76-9.59zm34.98-11.97c-2.19 0-4.08-1.66-5.66-5-1.58-3.33-2.37-7.41-2.37-12.23v-14.2c0-1.66 4.6-4.54 13.81-8.62 9.21-4.08 14.51-6.11 15.91-6.11.79 0 1.49.46 2.1 1.38s1.1 1.67 1.45 2.24c.35.57.9 1.54 1.64 2.89.74 1.36 1.38 2.48 1.91 3.35 1.14 2.1 2.59 3.16 4.34 3.16v2.63c-1.4.61-3.25 1.54-5.52 2.76-5.61 3.07-8.64 4.6-9.07 4.6-1.31 0-2.74-2.15-4.27-6.44-1.54-4.29-2.92-6.44-4.14-6.44-1.58 0-2.37 1.31-2.37 3.95v16.18c0 3.51.79 5.26 2.37 5.26.35 0 3.07-1.14 8.15-3.42 5.08-2.28 8.15-3.42 9.21-3.42 2.1 0 3.97 1.69 5.59 5.06 1.62 3.38 2.43 7.69 2.43 12.95V350c0 1.67-5.02 4.54-15.06 8.61-10.04 4.08-15.8 6.12-17.29 6.12-.61 0-1.21-.55-1.78-1.64-.57-1.09-1.36-2.78-2.37-5.06s-2-4.21-2.96-5.79c-1.14-2.11-2.59-3.16-4.34-3.16v-2.63c1.4-.61 3.29-1.53 5.65-2.76 5.52-3.07 8.5-4.6 8.94-4.6 1.31 0 2.96 2.59 4.93 7.76 1.97 5.17 3.57 7.76 4.8 7.76.88 0 1.71-.35 2.5-1.05.79-.7 1.18-1.66 1.18-2.89v-16.44c0-3.94-1.1-5.92-3.29-5.92-.7 0-3.46 1.05-8.29 3.16-4.8 2.09-7.51 3.14-8.13 3.14zm63-37.21v46.56c0 5.35 1.79 8.37 5.39 9.07v2.89l-13.28 7.5c-1.93-.79-3.73-2.08-5.39-3.88-1.67-1.8-2.5-3.49-2.5-5.06v-46.56c0-5.35-1.8-8.37-5.39-9.07v-2.89l13.28-7.5c1.93.79 3.72 2.08 5.39 3.88 1.66 1.79 2.5 3.48 2.5 5.06zm-17.76-25.38V264c0-.26 1.82-1.07 5.46-2.43 3.64-1.36 5.74-2.04 6.31-2.04.57 0 1.4.75 2.5 2.24 1.1 1.49 1.64 3.02 1.64 4.6v9.6c0 .26-1.75 1.07-5.26 2.43s-5.66 2.04-6.44 2.04c-.79 0-1.69-.77-2.7-2.3-1-1.54-1.51-3.58-1.51-6.12zm55.63-9.87c2.37 0 6.09 5.74 11.18 17.23 5.08 11.49 7.63 19.42 7.63 23.8v40.11c0 2.02.55 3.99 1.64 5.92 1.1 1.93 2.65 3.03 4.67 3.29v2.89c-.61.09-5.39 2.76-14.34 8.02-2.02-.88-3.84-2.17-5.46-3.88s-2.43-3.31-2.43-4.8c-9.38 5.79-14.86 8.68-16.44 8.68-.61 0-1.78-.68-3.48-2.04-1.71-1.36-3.42-3.33-5.13-5.92s-2.56-5.24-2.56-7.96v-46.95c0-.87 7.41-3.9 22.23-9.07-3.16-6.92-5.7-11.79-7.63-14.6-1.93-2.8-3.81-4.21-5.66-4.21h-4.34v-3.95c9.73-4.37 16.44-6.56 20.12-6.56zm-2.23 89.17c1.66 0 3.37-.7 5.13-2.11v-45.76c0-.53-.37-1.64-1.12-3.35-.75-1.71-1.29-2.57-1.64-2.57-2.54 0-5.13.79-7.76 2.37l-1.31.79v40.9c-.01 6.49 2.22 9.73 6.7 9.73zm27.61-54.97 14.47-7.89c.61.18 1.33.42 2.17.72.83.31 1.97 1.16 3.42 2.56 1.45 1.4 2.17 2.98 2.17 4.74.44-.18 2.52-1.56 6.25-4.14 3.73-2.59 6.12-3.88 7.17-3.88 2.81 0 5.44 1.84 7.89 5.52 2.45 3.68 3.68 7.06 3.68 10.13v6.44l-13.55 7.63-2.24-1.84c0-7.36-.7-11.57-2.1-12.62-1.58-1.14-3.95-1.71-7.1-1.71v41.95c0 5.35 1.79 8.37 5.39 9.07v2.89l-13.28 7.5c-1.93-.79-3.73-2.08-5.39-3.88-1.67-1.8-2.5-3.49-2.5-5.06v-43.66c0-3.86-.68-6.75-2.04-8.68-1.36-1.93-2.83-2.89-4.41-2.89v-2.9zm56.42 47.87v-43.66c0-.61 5-2.78 14.99-6.51 9.99-3.72 15.74-5.59 17.23-5.59 1.49 0 3.75 1.8 6.77 5.39 3.02 3.6 4.54 6.84 4.54 9.73v47.61c0 .7-4.8 2.92-14.4 6.64-9.6 3.73-15.47 5.59-17.62 5.59-2.15 0-4.6-1.88-7.36-5.66-2.77-3.77-4.15-8.28-4.15-13.54zm22.49 7.1c1.66 0 3.37-.7 5.13-2.11v-38.79c0-6.49-2.24-9.73-6.71-9.73-1.75 0-3.46.66-5.13 1.97v38.93c0 6.49 2.23 9.73 6.71 9.73zm-431.48 97.42v-57.08c0-3.24-.35-5.57-1.05-6.97-.7-1.4-2.15-2.11-4.34-2.11v-4.08l26.96-11.31 2.1 4.21c-1.93 0-3.77 1.14-5.52 3.42-1.58 2.19-2.37 5.52-2.37 10v53.79c0 7.02.61 11.22 1.84 12.63 2.1 2.63 4.16 4.21 6.18 4.73 4.64 1.05 9.78 1.58 15.39 1.58v3.68c-11.66 4.91-18.3 7.36-19.92 7.36-1.62 0-3.83-.72-6.64-2.17-2.81-1.45-5.61-3.79-8.42-7.03-2.81-3.24-4.21-6.79-4.21-10.65zM381.9 411v37.22c0 3.24.53 5.5 1.58 6.77 1.05 1.27 2.67 2.17 4.87 2.7v2.89l-14.34 8.02c-1.93-.79-3.73-2.08-5.39-3.88-1.67-1.79-2.5-3.44-2.5-4.93l-16.44 8.81c-.26-.17-.66-.42-1.18-.72s-1.43-.96-2.7-1.97c-1.27-1.01-2.39-2.08-3.35-3.22-2.63-2.89-3.95-6.18-3.95-9.86v-21.57c0-1.4 2.28-3.2 6.84-5.39 4.56-2.19 9.12-3.99 13.68-5.39l6.97-2.24c0-5-1.31-8.48-3.95-10.46-2.63-1.97-7.71-2.96-15.26-2.96v-3.94c13.59-4.82 21.22-7.23 22.88-7.23 2.89 0 5.66 1.89 8.29 5.65 2.63 3.77 3.95 7.67 3.95 11.7zm-25.58 42.68c1.36 1.45 2.87 2.17 4.54 2.17 1.66 0 3.42-.66 5.26-1.97v-29.72c-2.19.79-3.84 1.45-4.93 1.97s-2.26 1.36-3.48 2.5c-2.28 2.1-3.42 5.74-3.42 10.91v8.55c-.01 2.28.67 4.14 2.03 5.59zm67.72 9.46c-9.69 3.64-15.63 5.46-17.82 5.46-2.19 0-4.6-1.99-7.23-5.98-2.63-3.99-3.94-8.39-3.94-13.22v-54.84c0-2.37-.39-4.05-1.18-5.06-.79-1.01-2.15-1.51-4.08-1.51v-3.68c11.4-5.96 21.57-11.57 30.51-16.83l2.1 4.21c-.88.44-2.1 1.29-3.68 2.56s-2.89 2.57-3.95 3.88c-2.63 3.33-3.94 7.1-3.94 11.31v11.18c9.03-4.64 14.29-6.97 15.78-6.97 2.28 0 4.84 1.8 7.69 5.39 2.85 3.6 4.27 7.41 4.27 11.44v45.9c.01.87-4.84 3.13-14.53 6.76zm-13.21-18.21c0 7.72 2.02 11.57 6.05 11.57 2.11 0 4.03-.7 5.79-2.1v-32.88c0-8.59-1.58-13.46-4.73-14.6-1.49-.53-3.86-.79-7.1-.79v38.8zm34.32-43.4 14.47-7.89c.61.18 1.33.42 2.17.72.83.31 1.97 1.16 3.42 2.56 1.45 1.4 2.17 2.98 2.17 4.74.44-.18 2.52-1.56 6.25-4.14 3.73-2.59 6.12-3.88 7.17-3.88 2.81 0 5.44 1.84 7.89 5.52 2.45 3.68 3.68 7.06 3.68 10.13v6.44l-13.55 7.63-2.24-1.84c0-7.36-.7-11.57-2.1-12.63-1.58-1.14-3.95-1.71-7.1-1.71v41.95c0 5.35 1.79 8.37 5.39 9.07v2.89l-13.28 7.5c-1.93-.79-3.73-2.08-5.39-3.88-1.67-1.79-2.5-3.48-2.5-5.06V416c0-3.86-.68-6.75-2.04-8.68-1.36-1.93-2.83-2.89-4.41-2.89v-2.9zm89.29 9.47v37.22c0 3.24.53 5.5 1.58 6.77 1.05 1.27 2.67 2.17 4.87 2.7v2.89l-14.34 8.02c-1.93-.79-3.73-2.08-5.39-3.88-1.67-1.79-2.5-3.44-2.5-4.93l-16.44 8.81c-.26-.17-.66-.42-1.18-.72s-1.43-.96-2.7-1.97c-1.27-1.01-2.39-2.08-3.35-3.22-2.63-2.89-3.95-6.18-3.95-9.86v-21.57c0-1.4 2.28-3.2 6.84-5.39 4.56-2.19 9.12-3.99 13.68-5.39l6.97-2.24c0-5-1.31-8.48-3.95-10.46-2.63-1.97-7.71-2.96-15.26-2.96v-3.94c13.59-4.82 21.22-7.23 22.88-7.23 2.89 0 5.66 1.89 8.29 5.65 2.64 3.77 3.95 7.67 3.95 11.7zm-25.57 42.68c1.36 1.45 2.87 2.17 4.54 2.17 1.66 0 3.42-.66 5.26-1.97v-29.72c-2.19.79-3.84 1.45-4.93 1.97-1.1.53-2.26 1.36-3.48 2.5-2.28 2.1-3.42 5.74-3.42 10.91v8.55c-.01 2.28.67 4.14 2.03 5.59zm63.45-86.34c2.37 0 6.09 5.74 11.18 17.23 5.08 11.49 7.63 19.42 7.63 23.8v40.11c0 2.02.55 3.99 1.64 5.92 1.1 1.93 2.65 3.02 4.67 3.29v2.89c-.61.09-5.39 2.76-14.34 8.02-2.02-.88-3.84-2.17-5.46-3.88s-2.43-3.31-2.43-4.8c-9.38 5.79-14.86 8.68-16.44 8.68-.61 0-1.78-.68-3.48-2.04-1.71-1.36-3.42-3.33-5.13-5.92s-2.56-5.24-2.56-7.96v-46.95c0-.87 7.41-3.9 22.23-9.07-3.16-6.92-5.7-11.79-7.63-14.6-1.93-2.8-3.81-4.21-5.66-4.21h-4.34v-3.95c9.73-4.37 16.44-6.56 20.12-6.56zm-2.24 89.16c1.66 0 3.37-.7 5.13-2.1v-45.77c0-.53-.37-1.64-1.12-3.35-.75-1.71-1.29-2.56-1.64-2.56-2.54 0-5.13.79-7.76 2.37l-1.31.79v40.9c0 6.48 2.23 9.72 6.7 9.72zm34.06-7.1v-43.66c0-.61 5-2.78 14.99-6.51 9.99-3.72 15.74-5.59 17.23-5.59 1.49 0 3.75 1.8 6.77 5.39 3.02 3.6 4.54 6.84 4.54 9.73v47.61c0 .7-4.8 2.92-14.4 6.64-9.6 3.73-15.47 5.59-17.62 5.59-2.15 0-4.6-1.89-7.36-5.66-2.77-3.76-4.15-8.28-4.15-13.54zm22.49 7.1c1.66 0 3.37-.7 5.13-2.1v-38.8c0-6.49-2.24-9.73-6.71-9.73-1.75 0-3.46.66-5.13 1.97v38.93c0 6.49 2.24 9.73 6.71 9.73zm27.75-54.97 14.47-7.89c.61.18 1.33.42 2.17.72.83.31 1.97 1.16 3.42 2.56 1.45 1.4 2.17 2.98 2.17 4.74.44-.18 2.52-1.56 6.25-4.14 3.73-2.59 6.12-3.88 7.17-3.88 2.81 0 5.44 1.84 7.89 5.52 2.45 3.68 3.68 7.06 3.68 10.13v6.44l-13.55 7.63-2.24-1.84c0-7.36-.7-11.57-2.1-12.63-1.58-1.14-3.95-1.71-7.1-1.71v41.95c0 5.35 1.79 8.37 5.39 9.07v2.89l-13.28 7.5c-1.93-.79-3.73-2.08-5.39-3.88-1.67-1.79-2.5-3.48-2.5-5.06V416c0-3.86-.68-6.75-2.04-8.68-1.36-1.93-2.83-2.89-4.41-2.89v-2.9z"/></svg>