<svg xmlns="http://www.w3.org/2000/svg" xml:space="preserve" width="90mm" height="90mm" style="shape-rendering:geometricPrecision;text-rendering:geometricPrecision;image-rendering:optimizeQuality;fill-rule:evenodd;clip-rule:evenodd" viewBox="0 0 192.24 192.24"><defs><style>.fil1{fill:#fff;fill-rule:nonzero}</style></defs><g id="Capa_x0020_1"><circle cx="96.12" cy="96.12" r="96.12" style="fill:#42ae58"/><g id="_3208380591568"><path class="fil1" d="m93.7 62.3-3.46 4.96c-1.02 1.47 1.51 3.87 3.98 1.28l2.96-.12c.18-.01.36.06.5.16 1.67 1.17 4.26 1.23 3.1-1.32l-3.46-4.96c-.89-1.26-2.76-1.26-3.64 0z"/><path class="fil1" d="M96.25 59.7c2.72.17 4.5 1.58 5.27 2.56 2 2.56 2.49 5.23 2.64 6.52 3.08-6.33 5.05-15.26 5.05-22.77 0-13.26-6.12-17.09-13.68-17.09-7.55 0-13.68 3.83-13.68 17.09 0 7.52 1.97 16.45 5.05 22.77 1.35-6.57 5.86-9.31 9.34-9.09zM142.57 125.68l-2.29-13.76c-.13-.77-.29-1.54-.47-2.3l-1.46-6.23c-.55-2.3-1.82-5.36-3.13-8.16-2.21-4.7-5.67-8.7-9.98-11.6l-8.57-5.77c-.96-.65-1.86-1.36-2.7-2.15l-6.9-6.43c-2.15 4.79-6.87 8.97-11.53 8.97-4.2 0-9.41-4-12.12-8.56l-2.05 3.37a18.099 18.099 0 0 1-3.89 4.52L64.89 88.07l-5.51 5.33a29.726 29.726 0 0 0-6.45 9.24c-.93 2.08-1.53 4.3-1.78 6.57-1.44 6.62-2.72 13.91-3.66 21.83-1.07 9.08-1.5 17.5-1.55 25.09H146.3l-3.73-30.45zm-47.87-11.7-.08.46c-.1.56-.45 1.05-.95 1.31l-2.71 1.39a.42.42 0 0 0-.14.09l-.71.51c-.41.29-.85.52-1.33.67l-2.3.76c-.02-.23-.08-1.07.49-1.86.4-.56.92-.81 1.16-.91l6.4-2.56c.1-.03.19.05.17.14zm-8.06.27c.03-.28.17-.54.38-.72l3.37-3.03c.07-.06.17-.01.17.07v1.2c0 .45-.2.88-.55 1.16l-3.54 2.87.18-1.55zm9.48 6.37c0 .54-.43.99-.97 1.01l-8.05.33c-.37.02-.71.19-.95.47l-1.43 1.74c-.36.44-.36.91-.19 1.04.07.05.19.06.31.03.24-.06.43-.24.55-.45l.87-1.63c.1-.19.3-.31.52-.31h2.14c.03 1.84.07 3.68.1 5.52-.09.77.42 1.31.86 1.31.3 0 1.15.09 1.3-3.31 0-.04.32-3.68.32-3.68l2.06.05c.45.01 1.62-.59 1.5 6.49-.12 2.39-.73 4.28-1.22 5.47-1.38 2.77-3.32 4.84-5.69 6.32l-13.73 13.51v-16.54c.54-.44 1.26-1.03 2.1-1.72 1.12-.91 1.38-1.12 1.64-1.56.38-.65.4-1.24.39-2.73-.01-1.35-.04-2.63-.08-3.82.15-6 .31-11.99.46-17.98 0-.19.16-.35.36-.35H80c1.01 0 1.83.82 1.83 1.83v10.96l1.94-1.51c.78-.6 1.67-1.05 2.62-1.31l.12-.03c.47-.13.95-.2 1.43-.21l8.17-.14v1.22zm20.72-8.84c.12.39.29.77.42 1.16.5 1.5.37 3.2-.34 4.61l-.83-9.83c.48 1.29.35 2.74.75 4.06zm-.31 9.19c.32 1.43.61 2.88.48 4.34l-.48-4.34c-.06-.28-.12-.56-.19-.84a62.39 62.39 0 0 1-1.44-14.02l1.62 14.86zm-4.29 2.78c1.01-1.86 1.95-1.91 2.64-1.54.69.38.88 1.05-.13 2.9-1.01 1.86-3.56 3.52-3.56 3.52s.04-3.03 1.05-4.89zm-1.48 1.06s-1.46-2.4-1.48-4.3c-.01-1.9.47-2.35 1.26-2.36.79 0 1.59.44 1.6 2.34.01 1.9-1.39 4.32-1.39 4.32zm1.9 5.96c1.01-1.49 1.9-1.39 2.56-.95.65.44.82 1.07-.19 2.55-1.01 1.48-3.49 2.56-3.49 2.56s.11-2.68 1.12-4.16zm.23 5.77c1.11-1.63 2.09-1.53 2.81-1.04.72.49.9 1.17-.21 2.8s-3.83 2.81-3.83 2.81.12-2.94 1.23-4.57zm1.09-22.31.57 3.93c.06.14.12.27.17.41.36.94.47 1.97.32 2.96l-.49-3.37c-.16-.36-.34-.72-.47-1.09-.32-.9-.35-1.91-.1-2.84zm-.82-5.94.29 9.87c.27 1 .46 2.02.09 2.96l-.09-2.96c-.13-.48-.28-.96-.4-1.44-.69-2.75-.29-5.63.11-8.43zm-3.38 2.17 1.97-12.8c-.02-.54-.06-1.09-.12-1.63-.07-.67-.15-1.36-.05-2.03.1-.67.42-1.34 1-1.7l-.83 5.36c.22 4.6-.46 9.21-1.14 13.78-.11.74-.22 1.48-.45 2.2-.21.69-.53 1.34-.8 2.01-.36.88-.62 1.8-.8 2.73l-.22 1.41c.05-.48.12-.95.22-1.41l.95-6.16c-.19.84-.48 1.66-.89 2.44-.14.25-.28.5-.43.75l-.63 4.76c-.21-1.01-.41-2.06-.16-3.06.15-.61.47-1.16.79-1.7l1.37-10.34c.22 1.78.37 3.63.22 5.41zm-3.3-7.63-.19 1.93.03.24c.1.73.17 1.55-.26 2.15l.23-2.39c-.09-.66-.14-1.36.19-1.93zm.38-7.83c.85 4.06 1.71 8.18 1.51 12.33-.12 2.68-.69 5.33-1.53 7.88-.28.85-.6 1.72-.81 2.6l-.12 3.4c-.29-1.12-.16-2.27.12-3.4l.84-22.81zm-2.29 21.01.18-4.34c-.01-.03-.01-.06-.02-.09-.18-.67-.36-1.47.11-1.98l-.09 2.07c.38 1.44.55 3.05-.18 4.34zm.98 6.76c.64-.46 1.58-.53 2.82 1.18 1.24 1.71 1.67 4.71 1.67 4.71s-2.75-1.32-3.99-3.03c-1.24-1.71-1.14-2.4-.5-2.86zm.65 7.59c.59-.53 1.46-.74 2.66.61 1.2 1.34 1.65 3.99 1.65 3.99s-2.6-.74-3.79-2.08c-1.19-1.35-1.11-1.99-.52-2.51zm.26 5.69c.65-.57 1.61-.81 2.92.67 1.31 1.48 1.81 4.38 1.81 4.38s-2.85-.81-4.16-2.29-1.22-2.17-.57-2.75zm.81 14.35c-1.4-1.58-1.3-2.32-.61-2.94.69-.62 1.72-.86 3.12.71 1.4 1.58 1.93 4.68 1.93 4.68s-3.04-.87-4.44-2.45zm0-5.47c-1.4-1.58-1.3-2.32-.61-2.94.69-.62 1.72-.86 3.12.71 1.4 1.58 1.93 4.68 1.93 4.68s-3.04-.87-4.44-2.45zm6.01-2.39c1.18-1.74 2.23-1.63 3-1.11.77.52.96 1.25-.22 2.99-1.18 1.74-4.09 3-4.09 3s.12-3.14 1.31-4.88zm3.49 7.3c-1.18 1.74-4.09 3-4.09 3s.13-3.14 1.31-4.89c1.18-1.74 2.23-1.63 3-1.11.77.52.95 1.26-.23 3zm.43-42.3.38-4.79c-.08-.85-.2-1.7-.3-2.53-.3-2.45-.37-5.13 1.07-7.14l-.76 9.68c.15 1.63.16 3.26-.38 4.78z"/><path class="fil1" d="M96.12 14.75c-18.15 0-32.86 14.71-32.86 32.86 0 11.23 5.63 21.13 14.22 27.06l3.87-4.97c-7.12-4.77-11.8-12.88-11.8-22.08 0-14.67 11.9-26.56 26.56-26.56 14.67 0 26.56 11.9 26.56 26.56 0 9.32-4.8 17.51-12.07 22.26l4.28 4.7c8.51-5.94 14.08-15.79 14.08-26.96 0-18.15-14.71-32.86-32.85-32.86z"/></g></g></svg>